<svg width="14" height="14" viewBox="0 0 14 14" fill="none" xmlns="http://www.w3.org/2000/svg">
<path opacity="0.7" fill-rule="evenodd" clip-rule="evenodd" d="M3.78 0H9.56C11.82 0 13.3333 1.58667 13.3333 3.94667V9.394C13.3333 11.7473 11.82 13.3333 9.56 13.3333H3.78C1.52 13.3333 0 11.7473 0 9.394V3.94667C0 1.58667 1.52 0 3.78 0ZM8.67333 8.66667C8.9 8.44067 8.9 8.074 8.67333 7.84733L7.48667 6.66067L8.67333 5.47333C8.9 5.24733 8.9 4.874 8.67333 4.64733C8.44667 4.42 8.08 4.42 7.84667 4.64733L6.66667 5.83333L5.48 4.64733C5.24667 4.42 4.88 4.42 4.65333 4.64733C4.42667 4.874 4.42667 5.24733 4.65333 5.47333L5.84 6.66067L4.65333 7.84067C4.42667 8.074 4.42667 8.44067 4.65333 8.66667C4.76667 8.78 4.92 8.84067 5.06667 8.84067C5.22 8.84067 5.36667 8.78 5.48 8.66667L6.66667 7.48733L7.85333 8.66667C7.96667 8.78733 8.11333 8.84067 8.26 8.84067C8.41333 8.84067 8.56 8.78 8.67333 8.66667Z" fill="#9D94BD"/>
</svg>
