<svg width="311" height="75" viewBox="0 0 311 75" fill="none" xmlns="http://www.w3.org/2000/svg">
<path d="M34.7338 0.975999C34.9578 0.947999 34.9578 1.256 34.7618 1.312C34.5658 1.396 34.3418 1.452 34.1178 1.536C33.6138 1.704 33.1098 1.844 32.6058 2.012C32.3258 2.124 31.7098 2.18 31.5978 2.46C31.4578 2.768 31.3458 3.048 31.1498 3.328C29.8618 5.176 28.7698 6.884 28.0978 9.068C26.6978 13.604 25.7178 18.308 24.7938 22.956C24.6538 23.628 24.5418 24.3 24.4018 24.944C24.3178 25.448 24.0938 25.588 23.8698 25.98C23.4218 26.736 22.6098 26.26 22.3018 25.672C21.8538 24.804 21.6298 23.768 21.3498 22.816C21.0418 21.752 20.7618 20.688 20.4818 19.596C19.3618 15.116 18.7178 10.552 18.2978 5.932C18.2418 6.1 18.1578 6.268 18.0738 6.436C16.5898 9.544 14.6858 12.428 13.5658 15.732C13.0618 17.272 12.6138 18.84 12.0818 20.352C11.8298 21.136 11.4938 21.78 11.6618 22.62C11.8298 23.432 12.2498 24.328 12.1658 25.196C12.1098 26.12 10.9898 26.568 10.2058 26.148C9.53377 25.756 9.50577 24.72 9.33777 24.048C8.80577 21.78 8.24577 19.484 7.71377 17.188C6.73377 12.764 5.78177 8.34 4.99777 3.888C4.85777 3.104 4.63377 2.936 3.90577 2.6C3.23377 2.292 2.53377 2.04 1.83377 1.816C1.41377 1.676 0.741766 1.592 0.405766 1.312C0.153766 1.088 0.685766 0.92 0.853766 0.92C1.88977 1.06 2.92577 1.228 3.96177 1.312C5.08177 1.396 6.22977 1.284 7.34977 1.256C7.93777 1.228 8.55377 1.2 9.14177 1.144C9.28177 1.144 10.7098 0.92 10.3738 1.34C10.0938 1.704 9.22577 1.788 8.83377 1.984C8.27377 2.292 7.68577 2.768 7.68577 3.468C7.68577 4.084 7.93777 4.784 8.07777 5.4C8.21777 6.156 8.38577 6.912 8.52577 7.668C9.33777 11.588 10.2898 15.48 11.0738 19.428C12.6138 16.124 14.0418 12.792 15.4418 9.432C16.1418 7.808 16.8418 6.156 17.4578 4.504C17.6818 3.888 18.0458 2.488 18.9418 2.712C19.5578 2.852 19.7258 3.496 19.8938 4C20.0898 4.728 20.2858 5.428 20.4258 6.156C20.7618 7.948 21.1538 9.74 21.4898 11.532C22.1618 15.06 23.0578 18.532 23.6738 22.088C24.5698 18.56 26.0538 15.172 26.7818 11.616C27.0898 10.076 27.1738 8.48 27.6498 6.968C28.1258 5.4 29.1618 4.056 29.9458 2.628C29.4138 2.432 28.8818 2.264 28.3218 2.068C27.9858 1.956 27.4258 1.9 27.1458 1.648C26.8378 1.396 27.0898 1.032 27.4258 1.06L28.7138 1.144C30.7298 1.284 32.7178 1.116 34.7338 0.975999ZM48.3468 23.684L49.1868 24.72C49.4108 25.028 49.0748 25.42 48.7388 25.28C48.6268 25.224 48.5148 25.196 48.3748 25.14L47.1428 24.636C46.5268 24.384 45.8268 24.748 45.2108 24.888C44.7628 25 44.2028 24.776 44.6788 24.272L45.6868 23.236C45.8268 23.04 45.9388 23.012 45.9388 22.76C45.8828 22.312 45.8548 21.864 45.8268 21.416L45.7428 18.476C45.7428 17.412 45.9948 16.348 45.9388 15.256C45.9108 14.528 45.7988 13.296 45.1268 12.848C44.5948 12.484 43.8948 12.82 43.4188 13.1C42.5788 13.52 41.8228 14.136 41.1508 14.78C40.7588 15.144 39.9468 15.676 39.9468 16.264V17.748C39.9468 19.456 39.9188 21.192 39.6948 22.9C39.6388 23.404 39.5828 23.376 40.0028 23.6C40.1148 23.656 40.2548 23.712 40.3388 23.796C40.5348 23.908 40.8148 24.104 40.6188 24.356C40.5068 24.524 40.1708 24.524 39.9748 24.552C39.5268 24.608 39.0788 24.748 38.6308 24.776C38.2388 24.804 37.8468 24.664 37.4268 24.748C37.0348 24.804 36.6428 24.86 36.2508 24.972C35.9708 25.028 35.5508 25 35.6348 24.58C35.7188 24.356 35.9708 24.3 36.1668 24.244C36.4188 24.16 37.5948 23.796 37.5948 23.516V22.928C37.5948 22.06 37.5948 21.192 37.5948 20.324C37.6228 18.224 37.6228 16.096 37.6228 13.968C37.6508 12.792 37.6508 11.644 37.6508 10.468C37.6508 7.808 37.5108 5.064 37.8748 2.432C37.5388 2.572 37.2308 2.684 36.8948 2.796C36.6148 2.908 35.9148 2.824 36.3348 2.404C36.5868 1.928 37.2308 1.508 37.6228 1.144C38.3228 0.443999 39.1908 0.528 39.3588 1.62C39.5828 2.992 39.8628 4.336 39.8628 5.708C39.9188 8.62 39.9748 11.532 39.9748 14.416C40.8428 13.8 41.7108 13.156 42.6068 12.596C43.2508 12.204 44.0068 11.7 44.7908 11.644C46.7228 11.7 47.7028 13.688 48.0108 15.368C48.1788 16.572 48.0668 17.748 48.1228 18.952C48.1508 19.988 48.1508 20.996 48.1228 22.032C48.0948 22.648 47.9548 23.18 48.3468 23.684ZM59.8743 21.08C60.6023 21.5 59.3143 23.348 58.9783 23.712C58.1383 24.552 57.0463 24.86 55.9263 24.972C53.5183 25.336 51.5303 23.74 50.5783 21.64C48.9543 18.14 50.6343 12.68 54.7503 11.952C56.5983 11.812 58.5303 12.288 59.5103 13.996C59.8183 14.556 60.3503 15.592 59.7343 16.124C59.5103 16.32 59.4823 16.516 59.2023 16.6C58.6703 16.656 58.1383 16.684 57.6063 16.712C56.2343 16.768 54.8903 16.824 53.5463 16.936C53.3223 16.936 53.1263 16.964 52.9303 16.964C52.5943 16.992 52.4543 16.908 52.4263 17.272L52.3423 17.972C52.2863 18.896 52.3143 19.848 52.4263 20.772C52.7063 22.648 53.9103 24.692 56.0943 24.272C57.0183 24.076 57.7743 23.46 58.3623 22.76C58.6423 22.452 59.3703 20.8 59.8743 21.08ZM53.3783 13.8L53.3503 13.856C52.8743 14.528 52.6503 15.34 52.5383 16.152C53.4903 16.096 54.4423 16.236 55.3943 16.208C56.3743 16.208 57.3543 16.04 58.3343 15.956C58.1103 15.704 58.1103 15.172 58.0263 14.836C57.9423 14.584 57.8583 14.332 57.7183 14.08C57.4663 13.548 57.0463 13.128 56.5423 12.932C55.4503 12.456 54.0503 12.82 53.3783 13.8ZM75.6584 23.152C76.4424 23.684 74.3984 24.888 73.9784 24.972C72.7744 25.224 71.9064 24.412 71.1784 23.572C70.7584 23.068 70.3384 22.564 69.9744 22.032C69.5824 21.528 69.3024 20.968 68.8824 20.492C68.0984 19.68 66.8104 19.568 65.7184 19.54L65.6344 24.216C65.9144 24.188 66.6144 23.992 66.8104 24.3C67.1184 24.692 66.5864 24.832 66.3064 24.86C65.3824 24.944 64.4584 25 63.5344 25.084L62.4424 25.168C61.9944 25.224 61.7704 24.524 62.3024 24.496C62.8904 24.272 63.7304 24.384 64.3744 24.328H63.5904C63.6744 21.108 63.7304 17.86 63.7584 14.64C63.7864 13.968 63.7864 13.296 63.7584 12.652C63.7584 12.596 61.7144 12.596 61.4904 12.596C61.3504 12.596 61.1544 12.624 61.0424 12.54C60.7344 12.344 60.9024 11.84 61.2664 11.896C61.8264 11.784 62.5824 12.008 63.1704 12.008C65.1304 12.008 67.0624 11.924 69.0224 11.812C70.4224 11.728 71.6544 11.56 72.6624 12.792C73.7264 14.164 73.7264 15.956 72.4664 17.188C71.0944 18.532 69.3864 18.14 67.6504 18.112C69.5824 18.896 71.0104 20.464 72.1304 22.172C72.4664 22.676 73.0264 23.796 73.6984 23.824C74.1464 23.88 74.5944 23.656 74.9584 23.404C75.1544 23.264 75.3504 22.984 75.6024 23.124L75.6304 23.152C75.6584 23.152 75.6584 23.152 75.6584 23.152ZM66.1384 17.608H66.5584C67.3704 17.608 68.1824 17.636 68.9944 17.608C69.6944 17.58 70.4784 17.664 70.9824 17.048C71.3744 16.544 71.4864 15.844 71.4304 15.228C71.3464 14.584 71.3184 13.828 70.9264 13.268C70.8704 13.184 70.5624 13.044 70.7304 13.072C69.3584 12.736 68.0144 12.624 66.6144 12.596C66.2784 12.596 65.9704 12.456 65.9424 12.82C65.9424 13.1 65.9144 13.38 65.9144 13.66C65.8584 14.444 65.8304 15.228 65.8024 16.012C65.8024 16.432 65.7744 16.88 65.7744 17.328C65.7464 17.692 65.8024 17.58 66.1384 17.608ZM86.425 21.08C87.153 21.5 85.865 23.348 85.529 23.712C84.689 24.552 83.597 24.86 82.477 24.972C80.069 25.336 78.081 23.74 77.129 21.64C75.505 18.14 77.185 12.68 81.301 11.952C83.149 11.812 85.081 12.288 86.061 13.996C86.369 14.556 86.901 15.592 86.285 16.124C86.061 16.32 86.033 16.516 85.753 16.6C85.221 16.656 84.689 16.684 84.157 16.712C82.785 16.768 81.441 16.824 80.097 16.936C79.873 16.936 79.677 16.964 79.481 16.964C79.145 16.992 79.005 16.908 78.977 17.272L78.893 17.972C78.837 18.896 78.865 19.848 78.977 20.772C79.257 22.648 80.461 24.692 82.645 24.272C83.569 24.076 84.325 23.46 84.913 22.76C85.193 22.452 85.921 20.8 86.425 21.08ZM79.929 13.8L79.901 13.856C79.425 14.528 79.201 15.34 79.089 16.152C80.041 16.096 80.993 16.236 81.945 16.208C82.925 16.208 83.905 16.04 84.885 15.956C84.661 15.704 84.661 15.172 84.577 14.836C84.493 14.584 84.409 14.332 84.269 14.08C84.017 13.548 83.597 13.128 83.093 12.932C82.001 12.456 80.601 12.82 79.929 13.8ZM107.966 8.592C107.266 7.92 108.442 6.996 108.974 7.584C109.59 8.256 108.694 9.292 107.966 8.592ZM111.886 11.7C112.278 11.756 112.222 12.232 111.942 12.372C111.718 12.484 111.494 12.568 111.242 12.624C110.486 12.848 109.674 12.932 108.862 12.932C109.002 14.584 109.03 16.236 109.058 17.916C109.058 18.952 109.086 19.988 109.17 21.024C109.226 21.836 109.226 22.76 108.778 23.488C109.142 23.656 109.478 23.824 109.842 23.964C110.094 24.076 110.598 24.216 110.766 24.468C111.074 24.916 110.486 25 110.178 24.944L108.862 24.692C107.518 24.468 106.146 24.748 104.886 25.252C104.606 25.336 103.906 25.364 104.214 24.832C104.326 24.636 104.662 24.524 104.83 24.44C105.586 24.076 106.342 23.768 107.126 23.516C106.734 22.592 106.874 21.528 106.902 20.548C106.902 19.484 106.846 18.448 106.762 17.384C106.65 15.9 106.454 14.024 106.902 12.568C106.426 12.484 105.922 12.4 105.446 12.4C105.194 12.4 104.858 12.484 104.69 12.26C104.102 11.476 106.202 11.812 106.37 11.812C107.406 11.784 108.442 11.588 109.478 11.588C110.29 11.588 111.074 11.644 111.886 11.7ZM122.625 14.556C122.961 14.976 122.233 15.312 121.981 14.808C121.757 14.332 121.477 13.828 121.141 13.408C120.917 13.1 120.721 12.652 120.385 12.54C119.853 12.372 119.265 12.288 118.705 12.316C118.173 12.372 117.361 12.54 117.081 13.1C116.885 13.492 117.081 13.912 117.305 14.304C118.061 15.676 119.321 16.796 120.301 18.056C121.561 19.736 122.317 22.004 121.365 24.048C120.217 26.596 117.277 24.692 115.597 23.768C115.681 23.992 115.821 24.328 115.821 24.552C115.933 24.944 115.373 25.168 115.177 24.804C114.981 24.636 114.869 24.216 114.757 23.964C114.589 23.572 114.365 23.18 114.197 22.788C113.805 21.948 113.497 21.08 113.105 20.24C112.993 19.988 112.769 19.652 112.713 19.372C112.545 18.98 113.161 18.7 113.357 19.064C113.777 19.54 114.057 20.408 114.337 20.968C114.533 21.332 114.757 21.668 114.953 22.06C115.121 22.34 115.149 22.732 115.429 22.9C116.465 23.516 118.509 24.692 119.629 24.328C121.001 23.88 119.629 20.996 119.209 20.296C118.481 19.12 117.669 18.056 117.025 16.852C116.409 15.704 115.345 13.772 116.325 12.54C117.193 11.42 118.985 11.42 120.273 11.504C120.217 11.224 119.881 10.44 120.133 10.188C120.637 9.712 120.973 10.972 121.085 11.224C121.645 12.316 121.925 13.52 122.625 14.556ZM152.881 11.336C153.161 11.336 155.653 11.252 155.121 11.98C154.757 12.428 153.553 12.484 152.993 12.484C153.105 12.708 151.453 16.32 150.053 19.652C149.437 21.052 148.933 22.452 148.513 23.404C148.513 23.404 147.197 26.204 146.777 27.996C146.581 28.892 145.097 32.084 145.069 32.7C145.041 33.288 143.669 36.032 143.669 36.032C143.669 36.032 142.073 37.936 141.569 36.984C140.785 35.444 140.841 33.988 141.849 34.296C143.417 34.744 143.417 34.632 143.417 34.632C143.417 34.632 143.977 33.624 144.761 31.244C145.293 29.592 146.637 26.26 147.421 24.356C146.945 23.656 146.301 21.444 145.321 18.952C144.313 16.376 142.689 13.38 142.801 12.624C142.185 12.652 141.093 12.708 140.561 12.344C140.169 12.204 140.309 11.728 140.701 11.728C140.953 11.7 141.233 11.672 141.485 11.672C142.605 11.588 143.697 11.504 144.817 11.392C145.321 11.364 145.993 11.616 145.321 12.036C145.097 12.176 144.845 12.288 144.593 12.344C144.537 12.344 144.733 13.072 145.125 14.108C145.405 14.864 145.993 15.396 146.329 16.32C147.113 18.364 148.289 21.472 148.289 21.864C148.289 21.864 149.073 20.324 149.857 17.888C150.557 15.648 151.957 12.484 152.153 12.288C151.789 12.204 150.697 12.176 150.361 12.064C150.053 11.98 149.633 11.616 150.137 11.392C150.361 11.28 150.809 11.42 151.061 11.42C151.677 11.476 152.293 11.336 152.881 11.336ZM164.041 11.952C164.741 12.12 165.469 12.12 166.141 12.344C167.037 12.652 167.793 13.212 168.297 14.024C169.277 15.648 169.277 17.972 168.913 19.792C168.213 23.264 165.105 25.308 161.661 24.748C159.757 24.412 158.021 23.32 157.041 21.668C156.509 20.744 155.949 19.344 156.145 18.224C156.593 14.892 159.869 11.308 163.481 11.84C163.649 11.868 163.845 11.924 164.041 11.952ZM163.957 12.54C160.625 12.484 158.469 15.704 158.525 18.672C158.441 20.324 158.777 21.976 160.233 22.984C161.717 24.048 163.901 24.076 165.357 22.956C167.261 21.528 167.345 18.756 167.289 16.6C167.289 15.564 167.177 14.36 166.365 13.604C165.777 13.072 164.685 12.596 163.957 12.54ZM184.65 23.152C185.462 23.768 182.97 24.664 182.662 24.748C181.29 25.028 180.73 24.244 180.45 22.956C179.274 23.572 177.902 24.608 176.502 24.608C174.934 24.664 173.534 23.348 173.17 21.864C172.834 20.492 172.974 18.868 173.002 17.468C173.03 15.872 173.114 14.248 173.338 12.624C172.778 12.652 171.798 12.708 171.322 12.344C170.986 12.204 171.126 11.728 171.462 11.728C171.686 11.7 171.938 11.672 172.162 11.672C173.142 11.588 174.122 11.504 175.102 11.392C175.55 11.364 176.166 11.616 175.55 12.036C175.382 12.176 175.13 12.288 174.906 12.344C174.766 12.372 174.906 13.016 174.906 13.156L175.074 15.48C175.13 17.328 175.186 19.176 175.13 21.024C175.102 22.144 175.13 24.104 176.726 23.992C177.958 23.908 179.722 22.62 180.282 21.5C180.45 21.276 180.338 20.8 180.338 20.52C180.338 19.988 180.366 19.484 180.394 18.952C180.422 18.028 180.478 17.076 180.534 16.124C180.562 15.312 180.618 14.5 180.702 13.688C180.73 13.24 180.674 12.568 181.038 12.232C180.702 12.148 180.338 12.176 180.03 12.064C179.75 11.98 179.386 11.616 179.834 11.392C180.058 11.28 180.45 11.42 180.674 11.42C181.206 11.476 181.766 11.336 182.298 11.336C182.522 11.336 184.734 11.252 184.258 11.98C183.95 12.428 182.858 12.484 182.382 12.484C182.522 12.848 182.466 13.38 182.438 13.744C182.438 14.416 182.438 15.06 182.41 15.732C182.354 17.272 182.326 18.812 182.214 20.352C182.158 21.052 182.186 21.78 182.102 22.508C182.102 22.704 181.794 23.74 181.934 23.852C182.494 24.02 183.11 23.88 183.614 23.628C183.894 23.488 184.314 22.872 184.65 23.152ZM200.373 23.152C201.157 23.684 199.113 24.888 198.693 24.972C197.489 25.224 196.621 24.412 195.893 23.572C195.473 23.068 195.053 22.564 194.689 22.032C194.297 21.528 194.017 20.968 193.597 20.492C192.813 19.68 191.525 19.568 190.433 19.54L190.349 24.216C190.629 24.188 191.329 23.992 191.525 24.3C191.833 24.692 191.301 24.832 191.021 24.86C190.097 24.944 189.173 25 188.249 25.084L187.157 25.168C186.709 25.224 186.485 24.524 187.017 24.496C187.605 24.272 188.445 24.384 189.089 24.328H188.305C188.389 21.108 188.445 17.86 188.473 14.64C188.501 13.968 188.501 13.296 188.473 12.652C188.473 12.596 186.429 12.596 186.205 12.596C186.065 12.596 185.869 12.624 185.757 12.54C185.449 12.344 185.617 11.84 185.981 11.896C186.541 11.784 187.297 12.008 187.885 12.008C189.845 12.008 191.777 11.924 193.737 11.812C195.137 11.728 196.369 11.56 197.377 12.792C198.441 14.164 198.441 15.956 197.181 17.188C195.809 18.532 194.101 18.14 192.365 18.112C194.297 18.896 195.725 20.464 196.845 22.172C197.181 22.676 197.741 23.796 198.413 23.824C198.861 23.88 199.309 23.656 199.673 23.404C199.869 23.264 200.065 22.984 200.317 23.124L200.345 23.152C200.373 23.152 200.373 23.152 200.373 23.152ZM190.853 17.608H191.273C192.085 17.608 192.897 17.636 193.709 17.608C194.409 17.58 195.193 17.664 195.697 17.048C196.089 16.544 196.201 15.844 196.145 15.228C196.061 14.584 196.033 13.828 195.641 13.268C195.585 13.184 195.277 13.044 195.445 13.072C194.073 12.736 192.729 12.624 191.329 12.596C190.993 12.596 190.685 12.456 190.657 12.82C190.657 13.1 190.629 13.38 190.629 13.66C190.573 14.444 190.545 15.228 190.517 16.012C190.517 16.432 190.489 16.88 190.489 17.328C190.461 17.692 190.517 17.58 190.853 17.608ZM237.589 23.908C237.925 24.048 237.813 24.496 237.477 24.524C237.225 24.552 237.001 24.552 236.749 24.58C235.769 24.636 234.789 24.748 233.809 24.832C233.361 24.888 232.773 24.636 233.361 24.216C233.557 24.076 233.781 23.964 234.005 23.908C234.145 23.852 234.033 23.236 234.005 23.096C233.949 22.312 233.893 21.556 233.865 20.772C233.781 18.924 233.753 17.076 233.781 15.228C233.809 14.108 233.781 12.148 232.185 12.26C231.821 12.288 231.401 12.428 230.981 12.624C230.617 12.932 230.141 13.352 229.889 13.744C229.693 14.108 229.553 14.78 229.441 15.452C229.553 16.544 229.329 17.916 229.301 18.952C229.301 20.576 229.525 21.724 229.301 23.32C229.581 23.852 229.665 23.74 230.141 24.104C230.477 24.244 230.365 24.72 230.029 24.72C229.777 24.748 229.553 24.776 229.301 24.776C228.321 24.86 228.321 24.748 227.341 24.832C226.893 24.888 226.277 24.636 226.893 24.216C227.089 24.076 227.313 23.964 227.537 23.908C227.677 23.852 227.537 23.236 227.537 23.096C227.481 22.312 227.425 21.556 227.397 20.772C227.313 18.924 227.257 17.076 227.313 15.228C227.341 14.108 227.313 12.148 225.717 12.26C224.485 12.344 222.721 13.632 222.161 14.724C221.993 14.976 222.105 15.424 222.105 15.732C222.105 16.264 222.077 16.768 222.077 17.272C222.021 18.224 221.993 19.176 221.937 20.128L221.769 22.536C221.713 23.012 221.769 23.656 221.433 24.02C221.741 24.104 222.105 24.076 222.413 24.188C222.693 24.272 223.057 24.636 222.609 24.86C222.413 24.944 221.993 24.832 221.797 24.832C221.265 24.776 220.705 24.916 220.173 24.916C219.921 24.916 217.709 24.972 218.185 24.272C218.521 23.796 219.585 23.768 220.061 23.74C219.921 23.376 220.005 22.872 220.005 22.48C220.005 21.836 220.005 21.164 220.033 20.52C220.089 18.98 220.145 17.44 220.229 15.9C220.285 15.172 220.257 14.444 220.341 13.744C220.369 13.548 220.677 12.484 220.509 12.4C219.977 12.232 219.333 12.344 218.829 12.596C218.549 12.736 218.157 13.38 217.793 13.1C217.009 12.456 219.473 11.56 219.781 11.504C221.153 11.224 221.741 12.008 221.993 13.268C223.197 12.68 224.541 11.644 225.941 11.616C227.061 11.588 228.069 12.232 228.713 13.156C229.833 12.54 231.121 11.644 232.409 11.616C234.005 11.56 235.377 12.904 235.769 14.388C236.105 15.76 235.937 17.384 235.937 18.756C235.909 20.38 235.825 22.004 235.601 23.6C236.133 23.572 237.113 23.544 237.589 23.908ZM250.845 23.404C251.181 23.824 250.173 24.524 249.921 24.72C249.333 25.14 248.689 25.196 248.045 24.916C246.561 24.216 245.973 22.564 245.721 21.052C245.161 22.06 244.573 23.124 243.705 23.908C242.277 25.196 240.345 24.916 239.309 23.348C238.665 22.396 239.365 20.912 239.841 20.044C240.317 19.176 240.933 18.364 241.717 17.776C242.473 17.188 243.229 16.824 243.845 16.096C244.321 15.564 245.441 14.612 245.329 13.884C245.273 13.548 245.189 13.156 245.077 12.82C244.461 11.056 241.745 12.4 240.681 12.988C240.401 13.156 240.233 13.156 240.205 13.492C240.177 13.94 240.121 14.416 240.065 14.864C240.037 15.2 239.981 15.564 239.925 15.928C239.841 16.236 239.421 16.348 239.253 16.04C239.113 15.76 239.225 15.256 239.225 14.976C239.253 14.5 239.281 13.996 239.337 13.52C239.421 12.568 239.533 11.588 239.673 10.636C239.673 10.44 239.673 10.104 239.813 9.936C240.037 9.656 240.429 9.852 240.429 10.188C240.401 10.888 240.373 11.588 240.317 12.288C241.633 11.196 243.789 9.992 245.469 11.028C246.729 11.812 247.037 13.632 247.317 14.976C247.737 17.16 247.401 19.372 247.849 21.528C247.933 22.06 248.213 23.964 248.941 24.02C249.501 24.16 250.453 22.928 250.845 23.404ZM244.517 20.996L244.601 20.884C244.993 20.436 245.609 19.792 245.581 19.26C245.581 18.504 245.609 17.776 245.609 17.02C244.965 17.384 244.181 17.356 243.509 17.692C242.977 17.944 242.333 18.392 241.997 18.924C241.549 19.568 241.353 20.352 241.241 21.136C241.185 21.444 241.073 22.2 241.185 22.396C241.773 24.356 244.013 21.64 244.517 20.996ZM266.211 28.22C266.323 29.536 265.987 30.74 265.539 31.944C265.035 33.232 263.551 33.876 262.347 34.24C261.479 34.492 260.583 34.632 259.715 34.772C258.959 34.856 258.147 34.996 257.419 34.688C256.019 34.128 254.619 32.952 253.667 31.776C252.295 30.124 251.091 26.904 253.275 25.392C254.563 24.496 256.355 24.44 257.895 24.384C259.407 24.328 260.891 24.384 262.403 24.328C261.899 23.236 261.255 22.2 260.611 21.164L260.219 20.604C260.079 20.436 260.219 20.38 259.883 20.464C259.351 20.576 258.791 20.632 258.231 20.576C256.439 20.408 254.339 19.148 254.115 17.216C253.947 15.508 254.955 13.66 256.439 12.848C258.007 12.008 260.359 12.372 261.871 13.24C261.983 13.268 262.515 12.008 262.683 11.756C262.879 11.42 263.327 10.608 263.775 10.496C264.027 10.3 264.195 10.664 264.027 10.86C263.831 11.084 263.663 11.336 263.551 11.588C263.243 12.232 263.047 12.904 262.935 13.604C262.879 13.94 262.991 13.912 263.215 14.164C263.467 14.444 263.663 14.78 263.803 15.144C264.027 15.732 263.999 16.348 263.915 16.964C263.747 18.364 262.739 19.4 261.507 19.96C261.787 20.268 261.647 20.744 261.871 21.052C262.067 21.332 262.347 21.584 262.571 21.808C263.159 22.424 263.803 23.012 264.363 23.656C265.483 24.972 266.099 26.484 266.211 28.22ZM258.819 19.932C260.779 20.128 262.179 18.588 262.123 16.712C262.095 16.068 262.151 15.284 261.927 14.668C261.759 14.08 261.059 13.772 260.555 13.604C259.715 13.268 258.707 13.212 257.839 13.52C256.999 13.856 256.579 14.78 256.383 15.592C256.187 16.46 256.103 17.272 256.551 18.084C256.971 18.896 257.727 19.764 258.679 19.932H258.735C259.015 19.96 258.959 19.96 258.819 19.932ZM258.735 19.932H258.679C258.735 19.932 258.763 19.932 258.819 19.932H258.735ZM263.831 30.572C263.859 29.06 263.747 27.772 263.215 26.344L262.795 25.168C262.655 24.86 262.543 24.916 262.207 24.888C261.647 24.804 261.059 24.776 260.471 24.776C259.071 24.804 257.671 24.944 256.327 25.336C255.487 25.588 254.311 25.924 253.863 26.764C253.359 27.576 254.171 29.004 254.563 29.76C255.235 31.132 256.047 32.784 257.307 33.68C258.483 34.52 260.555 33.68 261.703 33.12C262.851 32.532 263.691 31.888 263.831 30.572ZM270.771 8.592C270.071 7.92 271.247 6.996 271.779 7.584C272.395 8.256 271.499 9.292 270.771 8.592ZM274.691 11.7C275.083 11.756 275.027 12.232 274.747 12.372C274.523 12.484 274.299 12.568 274.047 12.624C273.291 12.848 272.479 12.932 271.667 12.932C271.807 14.584 271.835 16.236 271.863 17.916C271.863 18.952 271.891 19.988 271.975 21.024C272.031 21.836 272.031 22.76 271.583 23.488C271.947 23.656 272.283 23.824 272.647 23.964C272.899 24.076 273.403 24.216 273.571 24.468C273.879 24.916 273.291 25 272.983 24.944L271.667 24.692C270.323 24.468 268.951 24.748 267.691 25.252C267.411 25.336 266.711 25.364 267.019 24.832C267.131 24.636 267.467 24.524 267.635 24.44C268.391 24.076 269.147 23.768 269.931 23.516C269.539 22.592 269.679 21.528 269.707 20.548C269.707 19.484 269.651 18.448 269.567 17.384C269.455 15.9 269.259 14.024 269.707 12.568C269.231 12.484 268.727 12.4 268.251 12.4C267.999 12.4 267.663 12.484 267.495 12.26C266.907 11.476 269.007 11.812 269.175 11.812C270.211 11.784 271.247 11.588 272.283 11.588C273.095 11.588 273.879 11.644 274.691 11.7ZM285.262 14.948C285.346 15.256 284.926 15.284 284.814 15.032C284.73 14.836 284.674 14.668 284.618 14.5C284.45 14.108 284.31 13.716 284.17 13.352C284.142 13.268 283.134 12.708 282.77 12.568C281.902 12.232 281.174 12.344 280.39 12.82C278.738 13.828 278.234 15.452 278.038 17.3C277.87 18.868 277.842 20.716 278.29 22.228C278.654 23.32 279.13 23.992 280.278 24.244C281.286 24.44 282.434 24.244 283.302 23.712C283.498 23.572 284.814 22.004 285.094 21.472C285.15 21.36 285.234 21.108 285.374 21.108C285.598 21.108 285.542 21.332 285.486 21.444L284.954 22.9C284.73 23.432 284.534 23.964 284.338 24.524C284.31 24.608 284.282 24.72 284.226 24.832C284.058 25.28 283.358 25.084 283.47 24.608C281.538 25.056 279.298 25.336 277.758 23.768C276.498 22.452 276.106 20.492 276.162 18.7C276.246 16.628 276.918 14.5 278.57 13.1C280.194 11.756 281.762 11.644 283.862 12.54C283.778 12.344 283.638 12.12 283.666 11.896C283.75 11.504 284.31 11.448 284.45 11.84C284.534 12.064 284.59 12.344 284.646 12.596C284.87 13.38 285.066 14.164 285.262 14.948ZM298.588 23.404C298.924 23.824 297.916 24.524 297.664 24.72C297.076 25.14 296.432 25.196 295.788 24.916C294.304 24.216 293.716 22.564 293.464 21.052C292.904 22.06 292.316 23.124 291.448 23.908C290.02 25.196 288.088 24.916 287.052 23.348C286.408 22.396 287.108 20.912 287.584 20.044C288.06 19.176 288.676 18.364 289.46 17.776C290.216 17.188 290.972 16.824 291.588 16.096C292.064 15.564 293.184 14.612 293.072 13.884C293.016 13.548 292.932 13.156 292.82 12.82C292.204 11.056 289.488 12.4 288.424 12.988C288.144 13.156 287.976 13.156 287.948 13.492C287.92 13.94 287.864 14.416 287.808 14.864C287.78 15.2 287.724 15.564 287.668 15.928C287.584 16.236 287.164 16.348 286.996 16.04C286.856 15.76 286.968 15.256 286.968 14.976C286.996 14.5 287.024 13.996 287.08 13.52C287.164 12.568 287.276 11.588 287.416 10.636C287.416 10.44 287.416 10.104 287.556 9.936C287.78 9.656 288.172 9.852 288.172 10.188C288.144 10.888 288.116 11.588 288.06 12.288C289.376 11.196 291.532 9.992 293.212 11.028C294.472 11.812 294.78 13.632 295.06 14.976C295.48 17.16 295.144 19.372 295.592 21.528C295.676 22.06 295.956 23.964 296.684 24.02C297.244 24.16 298.196 22.928 298.588 23.404ZM292.26 20.996L292.344 20.884C292.736 20.436 293.352 19.792 293.324 19.26C293.324 18.504 293.352 17.776 293.352 17.02C292.708 17.384 291.924 17.356 291.252 17.692C290.72 17.944 290.076 18.392 289.74 18.924C289.292 19.568 289.096 20.352 288.984 21.136C288.928 21.444 288.816 22.2 288.928 22.396C289.516 24.356 291.756 21.64 292.26 20.996ZM309.445 22.368C309.781 22.256 310.061 22.676 309.837 22.928C309.445 23.376 309.081 23.796 308.689 24.188C308.045 24.86 307.373 25.532 306.533 25.952C305.721 26.4 304.713 26.176 303.901 25.896C302.501 25.42 301.045 24.58 300.737 23.04C300.597 22.312 300.681 21.556 300.709 20.856L300.793 17.888C300.877 14.836 301.101 11.812 301.269 8.76L301.437 6.128C301.493 5.288 301.493 4.364 301.633 3.496C301.493 3.552 301.325 3.58 301.157 3.636C300.821 3.748 300.513 3.832 300.177 3.916C299.785 4.028 299.337 3.58 299.785 3.328C300.513 2.88 301.241 2.432 301.969 2.012C302.277 1.844 302.585 1.564 302.949 1.648C303.509 1.788 303.649 2.936 303.705 3.412C303.873 5.148 303.677 7.052 303.621 8.788C303.565 11.84 303.509 14.892 303.313 17.916L303.145 20.94C303.089 21.892 302.753 23.04 303.313 23.88C303.817 24.552 304.657 25 305.469 25.14C306.281 25.28 307.009 24.664 307.597 24.188C307.961 23.88 308.325 23.544 308.661 23.18C308.885 22.956 309.137 22.48 309.445 22.368ZM112.636 58.92C113.252 59.368 111.684 60.572 111.376 60.796C110.648 61.272 109.836 61.58 108.996 61.804C108.604 61.916 107.176 62.42 106.868 61.972C106.336 61.58 105.944 60.684 105.636 60.096C104.684 60.852 103.592 61.636 102.388 61.888C101.016 62.196 99.4478 61.356 98.5238 60.404C97.3478 59.172 96.5918 57.38 96.5918 55.644C96.5918 52.816 98.0478 50.24 100.596 48.924C102.332 48.028 104.012 49.036 105.636 49.792C105.72 48.224 105.832 46.684 105.944 45.116C106.084 42.988 106 40.72 106.364 38.62C106.476 37.92 106.672 37.304 107.372 37.024C108.24 36.716 109.276 36.912 110.144 37.136C110.34 37.192 110.76 37.22 110.816 37.5C110.844 37.668 110.732 37.808 110.592 37.836C110.368 38.004 109.808 37.976 109.556 38.004C109.136 38.088 108.716 38.172 108.324 38.368C108.324 38.732 108.268 39.068 108.24 39.432C108.128 40.524 108.212 41.644 108.184 42.736C108.128 44.612 108.072 46.488 107.988 48.336C107.904 50.24 107.82 52.116 107.708 53.992C107.708 54.496 107.68 55 107.652 55.532C107.624 55.952 107.624 56.4 107.596 56.82C107.568 57.324 107.512 57.8 107.456 58.304C107.428 58.584 107.288 58.948 107.316 59.2L107.288 59.172C107.456 59.396 107.512 60.964 107.764 60.936C108.408 60.908 109.052 60.768 109.668 60.6C110.284 60.404 110.9 60.152 111.404 59.76C111.684 59.564 112.244 58.64 112.636 58.92ZM105.496 51.948C105.524 51.556 105.636 51.276 105.3 51.024C104.628 50.52 103.844 50.072 103.032 49.848C100.12 49.008 99.0558 53.628 99.2238 55.7C99.3078 56.848 99.6158 57.968 100.372 58.864C100.848 59.424 101.464 59.9 102.192 59.956C102.696 59.984 103.34 59.704 103.788 59.536C104.208 59.396 104.628 59.228 105.048 59.06C105.356 58.92 105.328 58.892 105.328 58.556C105.3 58.192 105.3 57.856 105.3 57.492C105.272 56.708 105.3 55.952 105.3 55.168C105.328 54.104 105.44 53.012 105.496 51.948ZM123.517 58.08C124.245 58.5 122.957 60.348 122.621 60.712C121.781 61.552 120.689 61.86 119.569 61.972C117.161 62.336 115.173 60.74 114.221 58.64C112.597 55.14 114.277 49.68 118.393 48.952C120.241 48.812 122.173 49.288 123.153 50.996C123.461 51.556 123.993 52.592 123.377 53.124C123.153 53.32 123.125 53.516 122.845 53.6C122.313 53.656 121.781 53.684 121.249 53.712C119.877 53.768 118.533 53.824 117.189 53.936C116.965 53.936 116.769 53.964 116.573 53.964C116.237 53.992 116.097 53.908 116.069 54.272L115.985 54.972C115.929 55.896 115.957 56.848 116.069 57.772C116.349 59.648 117.553 61.692 119.737 61.272C120.661 61.076 121.417 60.46 122.005 59.76C122.285 59.452 123.013 57.8 123.517 58.08ZM117.021 50.8L116.993 50.856C116.517 51.528 116.293 52.34 116.181 53.152C117.133 53.096 118.085 53.236 119.037 53.208C120.017 53.208 120.997 53.04 121.977 52.956C121.753 52.704 121.753 52.172 121.669 51.836C121.585 51.584 121.501 51.332 121.361 51.08C121.109 50.548 120.689 50.128 120.185 49.932C119.093 49.456 117.693 49.82 117.021 50.8ZM134.541 59.368C134.877 59.256 135.157 59.676 134.933 59.928C134.541 60.376 134.177 60.796 133.785 61.188C133.141 61.86 132.469 62.532 131.629 62.952C130.817 63.4 129.809 63.176 128.997 62.896C127.597 62.42 126.141 61.58 125.833 60.04C125.693 59.312 125.777 58.556 125.805 57.856L125.889 54.888C125.973 51.836 126.197 48.812 126.365 45.76L126.533 43.128C126.589 42.288 126.589 41.364 126.729 40.496C126.589 40.552 126.421 40.58 126.253 40.636C125.917 40.748 125.609 40.832 125.273 40.916C124.881 41.028 124.433 40.58 124.881 40.328C125.609 39.88 126.337 39.432 127.065 39.012C127.373 38.844 127.681 38.564 128.045 38.648C128.605 38.788 128.745 39.936 128.801 40.412C128.969 42.148 128.773 44.052 128.717 45.788C128.661 48.84 128.605 51.892 128.409 54.916L128.241 57.94C128.185 58.892 127.849 60.04 128.409 60.88C128.913 61.552 129.753 62 130.565 62.14C131.377 62.28 132.105 61.664 132.693 61.188C133.057 60.88 133.421 60.544 133.757 60.18C133.981 59.956 134.233 59.48 134.541 59.368ZM139.562 45.592C138.862 44.92 140.038 43.996 140.57 44.584C141.186 45.256 140.29 46.292 139.562 45.592ZM143.482 48.7C143.874 48.756 143.818 49.232 143.538 49.372C143.314 49.484 143.09 49.568 142.838 49.624C142.082 49.848 141.27 49.932 140.458 49.932C140.598 51.584 140.626 53.236 140.654 54.916C140.654 55.952 140.682 56.988 140.766 58.024C140.822 58.836 140.822 59.76 140.374 60.488C140.738 60.656 141.074 60.824 141.438 60.964C141.69 61.076 142.194 61.216 142.362 61.468C142.67 61.916 142.082 62 141.774 61.944L140.458 61.692C139.114 61.468 137.742 61.748 136.482 62.252C136.202 62.336 135.502 62.364 135.81 61.832C135.922 61.636 136.258 61.524 136.426 61.44C137.182 61.076 137.938 60.768 138.722 60.516C138.33 59.592 138.47 58.528 138.498 57.548C138.498 56.484 138.442 55.448 138.358 54.384C138.246 52.9 138.05 51.024 138.498 49.568C138.022 49.484 137.518 49.4 137.042 49.4C136.79 49.4 136.454 49.484 136.286 49.26C135.698 48.476 137.798 48.812 137.966 48.812C139.002 48.784 140.038 48.588 141.074 48.588C141.886 48.588 142.67 48.644 143.482 48.7ZM151.309 58.864C151.309 58.864 152.009 57.324 152.681 54.888C153.325 52.648 154.557 49.484 154.725 49.288C154.417 49.204 153.437 49.176 153.129 49.064C152.849 48.98 152.485 48.616 152.933 48.392C153.129 48.28 153.549 48.42 153.773 48.42C154.305 48.476 154.865 48.336 155.397 48.336C155.621 48.336 157.833 48.252 157.357 48.98C157.049 49.428 155.957 49.484 155.481 49.484C155.565 49.708 154.109 53.32 152.849 56.652C151.925 59.144 151.169 61.608 150.805 61.608C150.329 61.608 149.713 58.976 148.649 55.952C147.753 53.376 146.325 50.38 146.437 49.624C145.877 49.652 144.897 49.708 144.421 49.344C144.085 49.204 144.225 48.728 144.561 48.728C144.785 48.7 145.037 48.672 145.261 48.672C146.241 48.588 147.221 48.504 148.201 48.392C148.649 48.364 149.265 48.616 148.649 49.036C148.481 49.176 148.229 49.288 148.005 49.344C147.977 49.344 148.145 50.072 148.481 51.108C148.733 51.864 149.265 52.396 149.573 53.32C150.245 55.364 151.281 58.472 151.309 58.864ZM168.032 58.08C168.76 58.5 167.472 60.348 167.136 60.712C166.296 61.552 165.204 61.86 164.084 61.972C161.676 62.336 159.688 60.74 158.736 58.64C157.112 55.14 158.792 49.68 162.908 48.952C164.756 48.812 166.688 49.288 167.668 50.996C167.976 51.556 168.508 52.592 167.892 53.124C167.668 53.32 167.64 53.516 167.36 53.6C166.828 53.656 166.296 53.684 165.764 53.712C164.392 53.768 163.048 53.824 161.704 53.936C161.48 53.936 161.284 53.964 161.088 53.964C160.752 53.992 160.612 53.908 160.584 54.272L160.5 54.972C160.444 55.896 160.472 56.848 160.584 57.772C160.864 59.648 162.068 61.692 164.252 61.272C165.176 61.076 165.932 60.46 166.52 59.76C166.8 59.452 167.528 57.8 168.032 58.08ZM161.536 50.8L161.508 50.856C161.032 51.528 160.808 52.34 160.696 53.152C161.648 53.096 162.6 53.236 163.552 53.208C164.532 53.208 165.512 53.04 166.492 52.956C166.268 52.704 166.268 52.172 166.184 51.836C166.1 51.584 166.016 51.332 165.876 51.08C165.624 50.548 165.204 50.128 164.7 49.932C163.608 49.456 162.208 49.82 161.536 50.8ZM183.817 60.152C184.601 60.684 182.557 61.888 182.137 61.972C180.933 62.224 180.065 61.412 179.337 60.572C178.917 60.068 178.497 59.564 178.133 59.032C177.741 58.528 177.461 57.968 177.041 57.492C176.257 56.68 174.969 56.568 173.877 56.54L173.793 61.216C174.073 61.188 174.773 60.992 174.969 61.3C175.277 61.692 174.745 61.832 174.465 61.86C173.541 61.944 172.617 62 171.693 62.084L170.601 62.168C170.153 62.224 169.929 61.524 170.461 61.496C171.049 61.272 171.889 61.384 172.533 61.328H171.749C171.833 58.108 171.889 54.86 171.917 51.64C171.945 50.968 171.945 50.296 171.917 49.652C171.917 49.596 169.873 49.596 169.649 49.596C169.509 49.596 169.313 49.624 169.201 49.54C168.893 49.344 169.061 48.84 169.425 48.896C169.985 48.784 170.741 49.008 171.329 49.008C173.289 49.008 175.221 48.924 177.181 48.812C178.581 48.728 179.813 48.56 180.821 49.792C181.885 51.164 181.885 52.956 180.625 54.188C179.253 55.532 177.545 55.14 175.809 55.112C177.741 55.896 179.169 57.464 180.289 59.172C180.625 59.676 181.185 60.796 181.857 60.824C182.305 60.88 182.753 60.656 183.117 60.404C183.313 60.264 183.509 59.984 183.761 60.124L183.789 60.152C183.817 60.152 183.817 60.152 183.817 60.152ZM174.297 54.608H174.717C175.529 54.608 176.341 54.636 177.153 54.608C177.853 54.58 178.637 54.664 179.141 54.048C179.533 53.544 179.645 52.844 179.589 52.228C179.505 51.584 179.477 50.828 179.085 50.268C179.029 50.184 178.721 50.044 178.889 50.072C177.517 49.736 176.173 49.624 174.773 49.596C174.437 49.596 174.129 49.456 174.101 49.82C174.101 50.1 174.073 50.38 174.073 50.66C174.017 51.444 173.989 52.228 173.961 53.012C173.961 53.432 173.933 53.88 173.933 54.328C173.905 54.692 173.961 54.58 174.297 54.608ZM197.355 48.336C197.635 48.336 200.127 48.252 199.595 48.98C199.231 49.428 198.027 49.484 197.467 49.484C197.579 49.708 195.927 53.32 194.527 56.652C193.911 58.052 193.407 59.452 192.987 60.404C192.987 60.404 191.671 63.204 191.251 64.996C191.055 65.892 189.571 69.084 189.543 69.7C189.515 70.288 188.143 73.032 188.143 73.032C188.143 73.032 186.547 74.936 186.043 73.984C185.259 72.444 185.315 70.988 186.323 71.296C187.891 71.744 187.891 71.632 187.891 71.632C187.891 71.632 188.451 70.624 189.235 68.244C189.767 66.592 191.111 63.26 191.895 61.356C191.419 60.656 190.775 58.444 189.795 55.952C188.787 53.376 187.163 50.38 187.275 49.624C186.659 49.652 185.567 49.708 185.035 49.344C184.643 49.204 184.783 48.728 185.175 48.728C185.427 48.7 185.707 48.672 185.959 48.672C187.079 48.588 188.171 48.504 189.291 48.392C189.795 48.364 190.467 48.616 189.795 49.036C189.571 49.176 189.319 49.288 189.067 49.344C189.011 49.344 189.207 50.072 189.599 51.108C189.879 51.864 190.467 52.396 190.803 53.32C191.587 55.364 192.763 58.472 192.763 58.864C192.763 58.864 193.547 57.324 194.331 54.888C195.031 52.648 196.431 49.484 196.627 49.288C196.263 49.204 195.171 49.176 194.835 49.064C194.527 48.98 194.107 48.616 194.611 48.392C194.835 48.28 195.283 48.42 195.535 48.42C196.151 48.476 196.767 48.336 197.355 48.336ZM212.743 43.856C212.883 45.76 212.603 47.972 211.231 49.4C209.999 50.744 207.983 51.416 206.219 51.416C206.247 52.424 206.163 53.292 206.191 54.3C206.219 54.72 206.303 55.224 205.939 55.532C205.351 56.036 204.539 55.532 204.567 54.832C204.595 53.908 204.791 52.984 204.651 52.088C204.595 51.64 204.679 51.164 204.707 50.716C204.707 50.436 204.623 50.24 204.847 50.044C204.959 49.96 205.407 49.904 205.519 49.848C205.939 49.848 206.415 49.54 206.835 49.428C207.647 49.232 208.459 49.176 209.159 48.756C210.727 47.832 210.951 45.816 210.979 44.164C211.035 42.316 209.999 41.028 208.151 40.496C206.191 39.936 204.763 40.412 203.223 41.56C202.775 41.868 202.187 42.316 201.907 42.848C201.739 43.24 201.207 43.688 201.039 44.08C200.927 44.332 200.563 44.416 200.395 44.136C200.227 43.912 200.227 43.408 200.339 43.156C200.843 41.924 200.535 41.168 201.011 40.356C201.151 40.104 201.319 39.656 201.515 39.908C201.627 40.132 201.879 40.776 202.159 40.804C202.411 40.804 203.615 39.628 204.735 39.404C205.883 39.124 207.087 39.376 208.235 39.628C210.391 40.104 212.519 41.42 212.715 43.828C212.743 43.856 212.743 43.856 212.743 43.856ZM204.931 59.536C205.659 59.284 206.191 60.32 206.191 60.768C206.191 61.216 204.343 62 204.063 61.216C203.699 60.236 204.231 59.788 204.931 59.536Z" fill="white"/>
</svg>
