<svg width="72" height="32" viewBox="0 0 72 32" fill="none" xmlns="http://www.w3.org/2000/svg">
<path d="M18.6145 10.872C18.7965 11.012 18.7685 11.25 18.6285 11.404C18.0825 12.006 17.5645 12.692 16.9485 13.224C16.8085 13.406 16.5005 13.392 16.3605 13.21C16.3325 13.168 16.5565 12.972 16.3185 12.986C16.0945 13 15.8705 12.888 15.6465 12.874H14.9885C13.9105 12.874 12.8325 12.874 11.7405 12.86C10.4805 12.832 9.20646 12.916 7.94646 12.958C7.73646 12.958 7.52646 12.958 7.31646 12.972C6.96646 12.972 7.03646 12.496 7.40046 12.58C7.79246 12.664 8.26846 12.636 8.66046 12.51C8.75846 12.482 9.16446 12.356 9.17846 12.244V11.88C9.19246 9.906 9.20646 7.932 9.22046 5.958C9.22046 4.936 9.22046 3.914 9.23446 2.892V1.8C9.23446 1.702 9.23446 1.59 9.23446 1.478C8.96846 1.45 8.71646 1.408 8.45046 1.366C8.15646 1.324 7.86246 1.268 7.55446 1.198C7.38646 1.156 6.99446 1.142 6.85446 1.002C6.60246 0.749999 7.16246 0.749999 7.27446 0.749999L9.01046 0.791999C9.65446 0.805999 10.3125 0.819999 10.9705 0.848C11.2225 0.861999 11.4745 0.861999 11.7265 0.875999C11.8105 0.889999 12.2725 0.875999 12.1045 1.086C11.9785 1.24 11.5025 1.282 11.3205 1.324C11.0685 1.38 10.8305 1.422 10.5785 1.464C10.4105 1.492 10.4525 1.492 10.4665 1.632C10.4665 1.73 10.4805 1.814 10.4805 1.898C10.4945 2.108 10.4945 2.318 10.4945 2.514C10.5085 3.55 10.5225 4.572 10.5085 5.594C10.4945 7.68 10.4525 9.752 10.4805 11.824C10.4945 12.02 10.4245 12.258 10.6205 12.328C10.8585 12.426 11.0965 12.524 11.3485 12.566C11.8665 12.664 12.4125 12.636 12.9305 12.608C13.4905 12.58 14.0505 12.524 14.5965 12.482C15.0585 12.454 15.5625 12.496 15.9965 12.356C16.3185 12.258 16.6545 12.174 16.9765 12.034C17.1585 11.95 17.3265 11.782 17.4805 11.67C17.6485 11.53 18.4325 10.732 18.6145 10.872ZM23.1844 6.476C23.5344 6.56 23.8984 6.56 24.2344 6.672C24.6824 6.826 25.0604 7.106 25.3124 7.512C25.8024 8.324 25.8024 9.486 25.6204 10.396C25.2704 12.132 23.7164 13.154 21.9944 12.874C21.0424 12.706 20.1744 12.16 19.6844 11.334C19.4184 10.872 19.1384 10.172 19.2364 9.612C19.4604 7.946 21.0984 6.154 22.9044 6.42C22.9884 6.434 23.0864 6.462 23.1844 6.476ZM23.1424 6.77C21.4764 6.742 20.3984 8.352 20.4264 9.836C20.3844 10.662 20.5524 11.488 21.2804 11.992C22.0224 12.524 23.1144 12.538 23.8424 11.978C24.7944 11.264 24.8364 9.878 24.8084 8.8C24.8084 8.282 24.7524 7.68 24.3464 7.302C24.0524 7.036 23.5064 6.798 23.1424 6.77ZM32.8172 12.202C32.9852 12.412 32.4812 12.762 32.3552 12.86C32.0612 13.07 31.7392 13.098 31.4172 12.958C30.6752 12.608 30.3812 11.782 30.2552 11.026C29.9752 11.53 29.6812 12.062 29.2472 12.454C28.5332 13.098 27.5672 12.958 27.0492 12.174C26.7272 11.698 27.0772 10.956 27.3152 10.522C27.5532 10.088 27.8612 9.682 28.2532 9.388C28.6312 9.094 29.0092 8.912 29.3172 8.548C29.5552 8.282 30.1152 7.806 30.0592 7.442C30.0312 7.274 29.9892 7.078 29.9332 6.91C29.6252 6.028 28.2672 6.7 27.7352 6.994C27.5952 7.078 27.5112 7.078 27.4972 7.246C27.4832 7.47 27.4552 7.708 27.4272 7.932C27.4132 8.1 27.3852 8.282 27.3572 8.464C27.3152 8.618 27.1052 8.674 27.0212 8.52C26.9512 8.38 27.0072 8.128 27.0072 7.988C27.0212 7.75 27.0352 7.498 27.0632 7.26C27.1052 6.784 27.1612 6.294 27.2312 5.818C27.2312 5.72 27.2312 5.552 27.3012 5.468C27.4132 5.328 27.6092 5.426 27.6092 5.594C27.5952 5.944 27.5812 6.294 27.5532 6.644C28.2112 6.098 29.2892 5.496 30.1292 6.014C30.7592 6.406 30.9132 7.316 31.0532 7.988C31.2632 9.08 31.0952 10.186 31.3192 11.264C31.3612 11.53 31.5012 12.482 31.8652 12.51C32.1452 12.58 32.6212 11.964 32.8172 12.202ZM29.6532 10.998L29.6952 10.942C29.8912 10.718 30.1992 10.396 30.1852 10.13C30.1852 9.752 30.1992 9.388 30.1992 9.01C29.8772 9.192 29.4852 9.178 29.1492 9.346C28.8832 9.472 28.5612 9.696 28.3932 9.962C28.1692 10.284 28.0712 10.676 28.0152 11.068C27.9872 11.222 27.9312 11.6 27.9872 11.698C28.2812 12.678 29.4012 11.32 29.6532 10.998ZM41.1021 11.46C41.4101 11.684 40.6261 12.286 40.4721 12.398C40.1081 12.636 39.7021 12.79 39.2821 12.902C39.0861 12.958 38.3721 13.21 38.2181 12.986C37.9521 12.79 37.7561 12.342 37.6021 12.048C37.1261 12.426 36.5801 12.818 35.9781 12.944C35.2921 13.098 34.5081 12.678 34.0461 12.202C33.4581 11.586 33.0801 10.69 33.0801 9.822C33.0801 8.408 33.8081 7.12 35.0821 6.462C35.9501 6.014 36.7901 6.518 37.6021 6.896C37.6441 6.112 37.7001 5.342 37.7561 4.558C37.8261 3.494 37.7841 2.36 37.9661 1.31C38.0221 0.96 38.1201 0.652 38.4701 0.512C38.9041 0.357999 39.4221 0.456 39.8561 0.567999C39.9541 0.595999 40.1641 0.609999 40.1921 0.749999C40.2061 0.834 40.1501 0.904 40.0801 0.918C39.9681 1.002 39.6881 0.987999 39.5621 1.002C39.3521 1.044 39.1421 1.086 38.9461 1.184C38.9461 1.366 38.9181 1.534 38.9041 1.716C38.8481 2.262 38.8901 2.822 38.8761 3.368C38.8481 4.306 38.8201 5.244 38.7781 6.168C38.7361 7.12 38.6941 8.058 38.6381 8.996C38.6381 9.248 38.6241 9.5 38.6101 9.766C38.5961 9.976 38.5961 10.2 38.5821 10.41C38.5681 10.662 38.5401 10.9 38.5121 11.152C38.4981 11.292 38.4281 11.474 38.4421 11.6L38.4281 11.586C38.5121 11.698 38.5401 12.482 38.6661 12.468C38.9881 12.454 39.3101 12.384 39.6181 12.3C39.9261 12.202 40.2341 12.076 40.4861 11.88C40.6261 11.782 40.9061 11.32 41.1021 11.46ZM37.5321 7.974C37.5461 7.778 37.6021 7.638 37.4341 7.512C37.0981 7.26 36.7061 7.036 36.3001 6.924C34.8441 6.504 34.3121 8.814 34.3961 9.85C34.4381 10.424 34.5921 10.984 34.9701 11.432C35.2081 11.712 35.5161 11.95 35.8801 11.978C36.1321 11.992 36.4541 11.852 36.6781 11.768C36.8881 11.698 37.0981 11.614 37.3081 11.53C37.4621 11.46 37.4481 11.446 37.4481 11.278C37.4341 11.096 37.4341 10.928 37.4341 10.746C37.4201 10.354 37.4341 9.976 37.4341 9.584C37.4481 9.052 37.5041 8.506 37.5321 7.974ZM43.5046 4.796C43.1546 4.46 43.7426 3.998 44.0086 4.292C44.3166 4.628 43.8686 5.146 43.5046 4.796ZM45.4646 6.35C45.6606 6.378 45.6326 6.616 45.4926 6.686C45.3806 6.742 45.2686 6.784 45.1426 6.812C44.7646 6.924 44.3586 6.966 43.9526 6.966C44.0226 7.792 44.0366 8.618 44.0506 9.458C44.0506 9.976 44.0646 10.494 44.1066 11.012C44.1346 11.418 44.1346 11.88 43.9106 12.244C44.0926 12.328 44.2606 12.412 44.4426 12.482C44.5686 12.538 44.8206 12.608 44.9046 12.734C45.0586 12.958 44.7646 13 44.6106 12.972L43.9526 12.846C43.2806 12.734 42.5946 12.874 41.9646 13.126C41.8246 13.168 41.4746 13.182 41.6286 12.916C41.6846 12.818 41.8526 12.762 41.9366 12.72C42.3146 12.538 42.6926 12.384 43.0846 12.258C42.8886 11.796 42.9586 11.264 42.9726 10.774C42.9726 10.242 42.9446 9.724 42.9026 9.192C42.8466 8.45 42.7486 7.512 42.9726 6.784C42.7346 6.742 42.4826 6.7 42.2446 6.7C42.1186 6.7 41.9506 6.742 41.8666 6.63C41.5726 6.238 42.6226 6.406 42.7066 6.406C43.2246 6.392 43.7426 6.294 44.2606 6.294C44.6666 6.294 45.0586 6.322 45.4646 6.35ZM54.9919 6.028C55.1599 6.014 55.2579 6.238 55.1179 6.35C55.0339 6.42 54.8799 6.378 54.7819 6.392C54.4459 6.434 54.2079 6.546 53.9559 6.77C53.8719 6.84 53.7879 6.826 53.8019 6.966V7.19C53.8159 7.372 53.8159 7.554 53.8299 7.736V8.226C53.8579 9.346 53.8439 10.088 53.7739 11.208C53.7459 11.67 53.7179 12.104 53.7179 12.566C53.7039 12.734 53.7459 13.21 53.4939 13.21C53.3259 13.21 53.2559 13.252 53.1019 13.21C52.9479 13.21 52.5979 12.72 52.4999 12.636C52.2059 12.342 51.8839 12.062 51.6039 11.754C50.3719 10.438 49.1259 9.248 47.8939 8.044L47.7119 11.166C47.6979 11.572 47.6699 11.992 47.6419 12.412C47.6279 12.524 47.5999 12.58 47.7119 12.608C47.8519 12.636 48.0339 12.594 48.1599 12.636C48.3559 12.692 48.3139 12.986 48.1039 12.986C48.0199 13.014 47.8659 12.972 47.7819 12.972C47.5299 12.972 47.2639 12.944 47.0119 12.944C46.8299 12.944 46.1719 13.112 46.0459 12.902C45.8079 12.552 46.7599 12.636 46.8999 12.622C47.0259 12.608 47.2779 12.538 47.2919 12.384L47.4599 9.738C47.5019 9.024 47.5719 8.366 47.4879 7.666C47.4459 7.26 47.4459 6.882 47.4459 6.462C47.4599 6.154 47.6839 6.182 47.9499 6.182C48.0339 6.182 48.1039 6.21 48.1599 6.28C48.6779 6.798 49.1819 7.33 49.6859 7.848C50.8759 9.066 52.0519 10.298 53.2419 11.516C53.2699 10.032 53.3259 8.534 53.3819 7.05V6.854C53.3819 6.756 52.8919 6.602 52.7939 6.588C52.5979 6.546 52.3879 6.574 52.1919 6.56C51.9399 6.616 51.8979 6.21 52.1499 6.21C52.3039 6.154 52.5419 6.196 52.7099 6.182C52.8639 6.168 53.0319 6.154 53.1859 6.126C53.3119 6.112 53.4659 6.028 53.5919 6.042C54.0539 6.056 54.5159 6.098 54.9919 6.028ZM62.8399 14.61C62.8959 15.268 62.7279 15.87 62.5039 16.472C62.2519 17.116 61.5099 17.438 60.9079 17.62C60.4739 17.746 60.0259 17.816 59.5919 17.886C59.2139 17.928 58.8079 17.998 58.4439 17.844C57.7439 17.564 57.0439 16.976 56.5679 16.388C55.8819 15.562 55.2799 13.952 56.3719 13.196C57.0159 12.748 57.9119 12.72 58.6819 12.692C59.4379 12.664 60.1799 12.692 60.9359 12.664C60.6839 12.118 60.3619 11.6 60.0399 11.082L59.8439 10.802C59.7739 10.718 59.8439 10.69 59.6759 10.732C59.4099 10.788 59.1299 10.816 58.8499 10.788C57.9539 10.704 56.9039 10.074 56.7919 9.108C56.7079 8.254 57.2119 7.33 57.9539 6.924C58.7379 6.504 59.9139 6.686 60.6699 7.12C60.7259 7.134 60.9919 6.504 61.0759 6.378C61.1739 6.21 61.3979 5.804 61.6219 5.748C61.7479 5.65 61.8319 5.832 61.7479 5.93C61.6499 6.042 61.5659 6.168 61.5099 6.294C61.3559 6.616 61.2579 6.952 61.2019 7.302C61.1739 7.47 61.2299 7.456 61.3419 7.582C61.4679 7.722 61.5659 7.89 61.6359 8.072C61.7479 8.366 61.7339 8.674 61.6919 8.982C61.6079 9.682 61.1039 10.2 60.4879 10.48C60.6279 10.634 60.5579 10.872 60.6699 11.026C60.7679 11.166 60.9079 11.292 61.0199 11.404C61.3139 11.712 61.6359 12.006 61.9159 12.328C62.4759 12.986 62.7839 13.742 62.8399 14.61ZM59.1439 10.466C60.1239 10.564 60.8239 9.794 60.7959 8.856C60.7819 8.534 60.8099 8.142 60.6979 7.834C60.6139 7.54 60.2639 7.386 60.0119 7.302C59.5919 7.134 59.0879 7.106 58.6539 7.26C58.2339 7.428 58.0239 7.89 57.9259 8.296C57.8279 8.73 57.7859 9.136 58.0099 9.542C58.2199 9.948 58.5979 10.382 59.0739 10.466H59.1019C59.2419 10.48 59.2139 10.48 59.1439 10.466ZM59.1019 10.466H59.0739C59.1019 10.466 59.1159 10.466 59.1439 10.466H59.1019ZM61.6499 15.786C61.6639 15.03 61.6079 14.386 61.3419 13.672L61.1319 13.084C61.0619 12.93 61.0059 12.958 60.8379 12.944C60.5579 12.902 60.2639 12.888 59.9699 12.888C59.2699 12.902 58.5699 12.972 57.8979 13.168C57.4779 13.294 56.8899 13.462 56.6659 13.882C56.4139 14.288 56.8199 15.002 57.0159 15.38C57.3519 16.066 57.7579 16.892 58.3879 17.34C58.9759 17.76 60.0119 17.34 60.5859 17.06C61.1599 16.766 61.5799 16.444 61.6499 15.786ZM64.0138 13C64.0138 13 63.4818 12.79 63.4818 12.608C63.4818 12.202 64.0558 11.852 64.3638 11.95C64.6718 12.034 64.7978 12.734 64.6298 13.182C64.4478 13.616 63.8738 14.246 63.7478 14.148C63.6078 14.064 63.6918 13.756 63.8318 13.574C63.9578 13.406 64.0138 13 64.0138 13ZM8.65614 20.612C8.96414 21.312 9.04814 22.096 8.72614 22.824C8.41814 23.524 7.74614 23.902 7.01814 24.042C6.22014 24.182 5.38014 24.126 4.58214 24.294C4.37214 24.35 4.16214 24.392 3.96614 24.462C3.85414 24.49 3.75614 24.532 3.64414 24.574V24.77C3.61614 25.19 3.61614 25.624 3.61614 26.044C3.60214 27.318 3.61614 28.606 3.70014 29.88C3.71414 30.02 3.67214 30.132 3.81214 30.202L4.30214 30.44C4.47014 30.524 5.22614 30.748 5.08614 31.028C4.97414 31.266 4.19014 31.056 4.02214 31.042C3.67214 31 3.29414 30.916 2.95814 30.93C2.55214 30.944 2.14614 30.972 1.74014 30.986C1.40414 31 0.970141 31.098 0.634141 31.042C0.382141 30.986 0.466141 30.804 0.648141 30.72C0.830141 30.65 1.02614 30.58 1.22214 30.496C1.61414 30.342 2.02014 30.174 2.42614 30.02C2.53814 29.978 2.51014 28.802 2.52414 28.732C2.55214 27.934 2.58014 27.136 2.58014 26.352C2.56614 25.288 2.53814 24.224 2.51014 23.16C2.49614 22.348 2.48214 21.522 2.51014 20.71C2.52414 20.318 2.56614 20.024 2.34214 19.688C2.14614 19.394 1.58614 19.338 1.26414 19.394C1.15214 19.422 1.04014 19.492 0.928141 19.394C0.802141 19.282 0.872141 19.058 1.05414 19.044C1.23614 18.988 1.51614 19.03 1.69814 19.03C2.65014 19.044 3.60214 19.156 4.55414 19.24C5.33814 19.324 6.09414 19.226 6.87814 19.24C7.66214 19.268 8.22214 19.814 8.60014 20.472L8.61414 20.514C8.72614 20.752 8.69814 20.696 8.65614 20.612ZM7.91414 22.208C8.01214 21.648 7.84414 20.976 7.59214 20.472C7.45214 20.192 7.14414 19.8 6.85014 19.786C6.41614 19.716 5.98214 19.66 5.54814 19.618C5.21214 19.576 4.87614 19.506 4.55414 19.492C4.31614 19.478 3.86814 19.45 3.70014 19.646C3.65814 19.758 3.72814 20.094 3.74214 20.22C3.75614 20.766 3.75614 21.312 3.75614 21.858C3.75614 22.18 3.74214 22.502 3.72814 22.824C3.72814 23.006 3.61614 23.678 3.77014 23.734C4.34414 23.916 4.93214 23.972 5.53414 23.986C6.12214 24 6.75214 23.888 7.24214 23.524C7.69014 23.188 7.84414 22.74 7.91414 22.208ZM14.3271 29.684C14.4951 29.628 14.6351 29.838 14.5231 29.964C14.3271 30.188 14.1451 30.398 13.9491 30.594C13.6271 30.93 13.2911 31.266 12.8711 31.476C12.4651 31.7 11.9611 31.588 11.5551 31.448C10.8551 31.21 10.1271 30.79 9.97313 30.02C9.90313 29.656 9.94513 29.278 9.95913 28.928L10.0011 27.444C10.0431 25.918 10.1551 24.406 10.2391 22.88L10.3231 21.564C10.3511 21.144 10.3511 20.682 10.4211 20.248C10.3511 20.276 10.2671 20.29 10.1831 20.318C10.0151 20.374 9.86113 20.416 9.69313 20.458C9.49713 20.514 9.27313 20.29 9.49713 20.164C9.86113 19.94 10.2251 19.716 10.5891 19.506C10.7431 19.422 10.8971 19.282 11.0791 19.324C11.3591 19.394 11.4291 19.968 11.4571 20.206C11.5411 21.074 11.4431 22.026 11.4151 22.894C11.3871 24.42 11.3591 25.946 11.2611 27.458L11.1771 28.97C11.1491 29.446 10.9811 30.02 11.2611 30.44C11.5131 30.776 11.9331 31 12.3391 31.07C12.7451 31.14 13.1091 30.832 13.4031 30.594C13.5851 30.44 13.7671 30.272 13.9351 30.09C14.0471 29.978 14.1731 29.74 14.3271 29.684ZM19.8756 29.04C20.2396 29.25 19.5956 30.174 19.4276 30.356C19.0076 30.776 18.4616 30.93 17.9016 30.986C16.6976 31.168 15.7036 30.37 15.2276 29.32C14.4156 27.57 15.2556 24.84 17.3136 24.476C18.2376 24.406 19.2036 24.644 19.6936 25.498C19.8476 25.778 20.1136 26.296 19.8056 26.562C19.6936 26.66 19.6796 26.758 19.5396 26.8C19.2736 26.828 19.0076 26.842 18.7416 26.856C18.0556 26.884 17.3836 26.912 16.7116 26.968C16.5996 26.968 16.5016 26.982 16.4036 26.982C16.2356 26.996 16.1656 26.954 16.1516 27.136L16.1096 27.486C16.0816 27.948 16.0956 28.424 16.1516 28.886C16.2916 29.824 16.8936 30.846 17.9856 30.636C18.4476 30.538 18.8256 30.23 19.1196 29.88C19.2596 29.726 19.6236 28.9 19.8756 29.04ZM16.6276 25.4L16.6136 25.428C16.3756 25.764 16.2636 26.17 16.2076 26.576C16.6836 26.548 17.1596 26.618 17.6356 26.604C18.1256 26.604 18.6156 26.52 19.1056 26.478C18.9936 26.352 18.9936 26.086 18.9516 25.918C18.9096 25.792 18.8676 25.666 18.7976 25.54C18.6716 25.274 18.4616 25.064 18.2096 24.966C17.6636 24.728 16.9636 24.91 16.6276 25.4ZM26.5077 30.202C26.6757 30.412 26.1717 30.762 26.0457 30.86C25.7517 31.07 25.4297 31.098 25.1077 30.958C24.3657 30.608 24.0717 29.782 23.9457 29.026C23.6657 29.53 23.3717 30.062 22.9377 30.454C22.2237 31.098 21.2577 30.958 20.7397 30.174C20.4177 29.698 20.7677 28.956 21.0057 28.522C21.2437 28.088 21.5517 27.682 21.9437 27.388C22.3217 27.094 22.6997 26.912 23.0077 26.548C23.2457 26.282 23.8057 25.806 23.7497 25.442C23.7217 25.274 23.6797 25.078 23.6237 24.91C23.3157 24.028 21.9577 24.7 21.4257 24.994C21.2857 25.078 21.2017 25.078 21.1877 25.246C21.1737 25.47 21.1457 25.708 21.1177 25.932C21.1037 26.1 21.0757 26.282 21.0477 26.464C21.0057 26.618 20.7957 26.674 20.7117 26.52C20.6417 26.38 20.6977 26.128 20.6977 25.988C20.7117 25.75 20.7257 25.498 20.7537 25.26C20.7957 24.784 20.8517 24.294 20.9217 23.818C20.9217 23.72 20.9217 23.552 20.9917 23.468C21.1037 23.328 21.2997 23.426 21.2997 23.594C21.2857 23.944 21.2717 24.294 21.2437 24.644C21.9017 24.098 22.9797 23.496 23.8197 24.014C24.4497 24.406 24.6037 25.316 24.7437 25.988C24.9537 27.08 24.7857 28.186 25.0097 29.264C25.0517 29.53 25.1917 30.482 25.5557 30.51C25.8357 30.58 26.3117 29.964 26.5077 30.202ZM23.3437 28.998L23.3857 28.942C23.5817 28.718 23.8897 28.396 23.8757 28.13C23.8757 27.752 23.8897 27.388 23.8897 27.01C23.5677 27.192 23.1757 27.178 22.8397 27.346C22.5737 27.472 22.2517 27.696 22.0837 27.962C21.8597 28.284 21.7617 28.676 21.7057 29.068C21.6777 29.222 21.6217 29.6 21.6777 29.698C21.9717 30.678 23.0917 29.32 23.3437 28.998ZM31.7685 25.778C31.9365 25.988 31.5725 26.156 31.4465 25.904C31.3345 25.666 31.1945 25.414 31.0265 25.204C30.9145 25.05 30.8165 24.826 30.6485 24.77C30.3825 24.686 30.0885 24.644 29.8085 24.658C29.5425 24.686 29.1365 24.77 28.9965 25.05C28.8985 25.246 28.9965 25.456 29.1085 25.652C29.4865 26.338 30.1165 26.898 30.6065 27.528C31.2365 28.368 31.6145 29.502 31.1385 30.524C30.5645 31.798 29.0945 30.846 28.2545 30.384C28.2965 30.496 28.3665 30.664 28.3665 30.776C28.4225 30.972 28.1425 31.084 28.0445 30.902C27.9465 30.818 27.8905 30.608 27.8345 30.482C27.7505 30.286 27.6385 30.09 27.5545 29.894C27.3585 29.474 27.2045 29.04 27.0085 28.62C26.9525 28.494 26.8405 28.326 26.8125 28.186C26.7285 27.99 27.0365 27.85 27.1345 28.032C27.3445 28.27 27.4845 28.704 27.6245 28.984C27.7225 29.166 27.8345 29.334 27.9325 29.53C28.0165 29.67 28.0305 29.866 28.1705 29.95C28.6885 30.258 29.7105 30.846 30.2705 30.664C30.9565 30.44 30.2705 28.998 30.0605 28.648C29.6965 28.06 29.2905 27.528 28.9685 26.926C28.6605 26.352 28.1285 25.386 28.6185 24.77C29.0525 24.21 29.9485 24.21 30.5925 24.252C30.5645 24.112 30.3965 23.72 30.5225 23.594C30.7745 23.356 30.9425 23.986 30.9985 24.112C31.2785 24.658 31.4185 25.26 31.7685 25.778ZM37.1158 29.04C37.4798 29.25 36.8358 30.174 36.6678 30.356C36.2478 30.776 35.7018 30.93 35.1418 30.986C33.9378 31.168 32.9438 30.37 32.4678 29.32C31.6558 27.57 32.4958 24.84 34.5538 24.476C35.4778 24.406 36.4438 24.644 36.9338 25.498C37.0878 25.778 37.3538 26.296 37.0458 26.562C36.9338 26.66 36.9198 26.758 36.7798 26.8C36.5138 26.828 36.2478 26.842 35.9818 26.856C35.2958 26.884 34.6238 26.912 33.9518 26.968C33.8398 26.968 33.7418 26.982 33.6438 26.982C33.4758 26.996 33.4058 26.954 33.3918 27.136L33.3498 27.486C33.3218 27.948 33.3358 28.424 33.3918 28.886C33.5318 29.824 34.1338 30.846 35.2258 30.636C35.6878 30.538 36.0658 30.23 36.3598 29.88C36.4998 29.726 36.8638 28.9 37.1158 29.04ZM33.8678 25.4L33.8538 25.428C33.6158 25.764 33.5038 26.17 33.4478 26.576C33.9238 26.548 34.3998 26.618 34.8758 26.604C35.3658 26.604 35.8558 26.52 36.3458 26.478C36.2338 26.352 36.2338 26.086 36.1918 25.918C36.1498 25.792 36.1078 25.666 36.0378 25.54C35.9118 25.274 35.7018 25.064 35.4498 24.966C34.9038 24.728 34.2038 24.91 33.8678 25.4ZM47.1472 25.68C47.2732 26.058 47.5392 26.324 47.6932 26.786C48.0292 27.808 48.5472 29.376 48.5612 29.558C48.5612 29.558 48.9112 28.802 49.2472 27.584C49.5552 26.45 50.1852 24.868 50.2692 24.784C50.1152 24.742 49.6252 24.714 49.4712 24.658C49.3312 24.616 49.1492 24.434 49.3732 24.322C49.4712 24.28 49.6812 24.336 49.7932 24.336C50.0592 24.378 50.3252 24.294 50.6052 24.294C50.7172 24.294 51.8232 24.266 51.5852 24.616C51.4312 24.854 50.8852 24.868 50.6472 24.882C50.6892 24.98 49.9612 26.8 49.3312 28.452C48.8692 29.712 48.4912 30.93 48.3092 30.93C48.0712 30.93 47.7632 29.628 47.2312 28.102C47.0772 27.64 46.8672 27.136 46.6852 26.674L46.0552 28.326C45.5792 29.572 45.2152 30.804 45.0332 30.804C44.7812 30.804 44.4872 29.488 43.9552 27.976C43.5072 26.688 42.7932 25.19 42.8352 24.812C42.5692 24.826 42.0792 24.854 41.8412 24.672C41.6732 24.602 41.7292 24.364 41.8972 24.364C42.0232 24.35 42.1352 24.336 42.2612 24.336C42.7512 24.294 43.2412 24.252 43.7312 24.196C43.9552 24.182 44.2492 24.308 43.9552 24.518C43.8572 24.588 43.7452 24.644 43.6332 24.672C43.6052 24.672 43.7032 25.036 43.8712 25.554C43.9972 25.932 44.2632 26.198 44.4032 26.66C44.7532 27.682 45.2712 29.236 45.2852 29.432C45.2852 29.432 45.6352 28.662 45.9712 27.444C46.0972 27.01 46.2652 26.492 46.4332 26.03C46.4332 26.03 46.4892 24.714 46.7552 24.714C47.0212 24.714 47.1052 25.554 47.1052 25.554L47.1472 25.68ZM58.1307 30.202C58.2987 30.412 57.7947 30.762 57.6687 30.86C57.3747 31.07 57.0527 31.098 56.7307 30.958C55.9887 30.608 55.6947 29.782 55.5687 29.026C55.2887 29.53 54.9947 30.062 54.5607 30.454C53.8467 31.098 52.8807 30.958 52.3627 30.174C52.0407 29.698 52.3907 28.956 52.6287 28.522C52.8667 28.088 53.1747 27.682 53.5667 27.388C53.9447 27.094 54.3227 26.912 54.6307 26.548C54.8687 26.282 55.4287 25.806 55.3727 25.442C55.3447 25.274 55.3027 25.078 55.2467 24.91C54.9387 24.028 53.5807 24.7 53.0487 24.994C52.9087 25.078 52.8247 25.078 52.8107 25.246C52.7967 25.47 52.7687 25.708 52.7407 25.932C52.7267 26.1 52.6987 26.282 52.6707 26.464C52.6287 26.618 52.4187 26.674 52.3347 26.52C52.2647 26.38 52.3207 26.128 52.3207 25.988C52.3347 25.75 52.3487 25.498 52.3767 25.26C52.4187 24.784 52.4747 24.294 52.5447 23.818C52.5447 23.72 52.5447 23.552 52.6147 23.468C52.7267 23.328 52.9227 23.426 52.9227 23.594C52.9087 23.944 52.8947 24.294 52.8667 24.644C53.5247 24.098 54.6027 23.496 55.4427 24.014C56.0727 24.406 56.2267 25.316 56.3667 25.988C56.5767 27.08 56.4087 28.186 56.6327 29.264C56.6747 29.53 56.8147 30.482 57.1787 30.51C57.4587 30.58 57.9347 29.964 58.1307 30.202ZM54.9667 28.998L55.0087 28.942C55.2047 28.718 55.5127 28.396 55.4987 28.13C55.4987 27.752 55.5127 27.388 55.5127 27.01C55.1907 27.192 54.7987 27.178 54.4627 27.346C54.1967 27.472 53.8747 27.696 53.7067 27.962C53.4827 28.284 53.3847 28.676 53.3287 29.068C53.3007 29.222 53.2447 29.6 53.3007 29.698C53.5947 30.678 54.7147 29.32 54.9667 28.998ZM60.4235 22.796C60.0735 22.46 60.6615 21.998 60.9275 22.292C61.2355 22.628 60.7875 23.146 60.4235 22.796ZM62.3835 24.35C62.5795 24.378 62.5515 24.616 62.4115 24.686C62.2995 24.742 62.1875 24.784 62.0615 24.812C61.6835 24.924 61.2775 24.966 60.8715 24.966C60.9415 25.792 60.9555 26.618 60.9695 27.458C60.9695 27.976 60.9835 28.494 61.0255 29.012C61.0535 29.418 61.0535 29.88 60.8295 30.244C61.0115 30.328 61.1795 30.412 61.3615 30.482C61.4875 30.538 61.7395 30.608 61.8235 30.734C61.9775 30.958 61.6835 31 61.5295 30.972L60.8715 30.846C60.1995 30.734 59.5135 30.874 58.8835 31.126C58.7435 31.168 58.3935 31.182 58.5475 30.916C58.6035 30.818 58.7715 30.762 58.8555 30.72C59.2335 30.538 59.6115 30.384 60.0035 30.258C59.8075 29.796 59.8775 29.264 59.8915 28.774C59.8915 28.242 59.8635 27.724 59.8215 27.192C59.7655 26.45 59.6675 25.512 59.8915 24.784C59.6535 24.742 59.4015 24.7 59.1635 24.7C59.0375 24.7 58.8695 24.742 58.7855 24.63C58.4915 24.238 59.5415 24.406 59.6255 24.406C60.1435 24.392 60.6615 24.294 61.1795 24.294C61.5855 24.294 61.9775 24.322 62.3835 24.35ZM68.5509 28.676C69.0689 28.928 67.4869 30.622 67.2629 30.804C66.9269 31.098 66.2829 31.448 65.8209 31.21C64.9809 30.79 64.8269 29.81 64.7429 28.97C64.6589 28.144 64.7429 27.304 64.7989 26.464L64.8829 24.826C64.8969 24.686 64.9109 24.546 64.9109 24.406C64.7849 24.406 64.6449 24.392 64.5189 24.378L63.8469 24.294C63.5669 24.252 63.3009 24.21 63.0349 24.14C62.8529 24.098 62.8669 23.818 63.0489 23.79C63.5529 23.706 64.0569 23.692 64.5469 23.692C64.6869 23.678 64.8269 23.692 64.9669 23.692C64.9669 23.566 64.9809 23.44 64.9809 23.314C64.9949 23.034 65.0229 22.768 65.0509 22.502C65.0789 22.082 65.1209 21.662 65.1489 21.242C65.1909 20.836 65.2189 20.416 65.2609 20.01C65.1629 20.08 64.5889 20.444 64.7289 20.01C64.7709 19.87 64.9669 19.73 65.0509 19.632C65.3029 19.366 65.7509 18.736 65.9469 19.38C66.0869 19.884 66.0589 20.458 66.0729 20.99C66.0869 21.732 66.1149 22.474 66.1149 23.202C66.1289 23.328 66.1289 23.44 66.1289 23.566C66.1289 23.748 66.1849 23.678 66.3389 23.692C66.5349 23.692 66.9269 23.678 67.0809 23.818C67.4169 24.14 66.3529 24.322 66.1989 24.35C66.0589 24.364 66.1289 24.882 66.1289 25.022V25.694C66.1289 26.184 66.1289 26.674 66.1289 27.164C66.1149 27.724 66.1149 28.284 66.1149 28.858C66.1149 29.236 66.1709 29.642 66.1569 30.034C66.1569 30.258 66.0729 30.51 66.1149 30.748C66.1149 30.804 66.1989 30.888 66.1709 30.902C66.3109 30.888 66.3949 30.86 66.5069 30.776C66.7729 30.552 67.0249 30.314 67.2629 30.076C67.5429 29.81 67.8089 29.516 68.0469 29.194C68.1309 29.068 68.3129 28.578 68.5509 28.676ZM68.5369 28.676H68.5509H68.5369ZM70.679 19.366C71.519 19.366 71.141 21.466 71.141 21.466C71.099 23.006 71.001 23.384 70.903 24.91L70.819 26.24C70.791 26.66 70.791 27.136 70.721 27.584C70.791 27.556 70.917 28.116 70.553 28.326C70.399 28.424 70.245 28.55 70.063 28.508C69.769 28.438 69.699 27.864 69.685 27.626C69.587 26.744 69.699 25.792 69.713 24.896C69.741 23.37 69.783 22.978 69.867 21.452C69.867 21.452 69.839 19.366 70.679 19.366ZM70.161 29.768C70.511 29.642 70.777 30.16 70.777 30.384C70.777 30.608 69.867 31 69.727 30.608C69.545 30.118 69.811 29.894 70.161 29.768Z" fill="white"/>
</svg>
